<svg id="Layer_1" data-name="Layer 1" xmlns="http://www.w3.org/2000/svg" xmlns:xlink="http://www.w3.org/1999/xlink" viewBox="0 0 21 15">
  <defs>
    <linearGradient id="linear-gradient" x1="-561.4" y1="51.73" x2="-561.4" y2="52.73" gradientTransform="translate(11800 -776) scale(21 15)" gradientUnits="userSpaceOnUse">
      <stop offset="0" stop-color="#fff"/>
      <stop offset="1" stop-color="#f0f0f0"/>
    </linearGradient>
    <linearGradient id="linear-gradient-2" x1="-561.4" y1="51.73" x2="-561.4" y2="52.67" gradientTransform="translate(11800 -776) scale(21 15)" gradientUnits="userSpaceOnUse">
      <stop offset="0" stop-color="#e1244a"/>
      <stop offset="1" stop-color="#be1134"/>
    </linearGradient>
    <linearGradient id="linear-gradient-3" x1="-540.33" y1="97" x2="-540.33" y2="98.08" gradientTransform="translate(6490 -776) scale(12 8)" gradientUnits="userSpaceOnUse">
      <stop offset="0" stop-color="#0c3f8e"/>
      <stop offset="1" stop-color="#032a67"/>
    </linearGradient>
    <linearGradient id="linear-gradient-4" x1="-515.29" y1="129.39" x2="-515.29" y2="130.39" gradientTransform="translate(4102.43 -775) scale(7.95 6)" gradientUnits="userSpaceOnUse">
      <stop offset="0" stop-color="#ffd34f"/>
      <stop offset="1" stop-color="#ffcb2f"/>
    </linearGradient>
  </defs>
  <title>my</title>
  <g id="Symbols">
    <g id="MY">
      <rect id="FlagBackground" width="21" height="15" fill="url(#linear-gradient)"/>
      <path id="Rectangle-537" d="M10,0H21V1.1H10Zm0,2.2H21V3.3H10Zm0,2.1H21V5.4H10Zm0,2.2H21V7.6H10ZM0,8.7H21V9.8H0Zm0,2.1H21v1.1H0ZM0,13H21v1.1H0Z" fill-rule="evenodd" fill="url(#linear-gradient-2)"/>
      <rect id="Rectangle-1568" width="12" height="8.7" fill="url(#linear-gradient-3)"/>
      <path id="Oval-12" d="M6.9,2A2.92,2.92,0,0,0,6,1.8,2.54,2.54,0,0,0,3.5,4.3,2.54,2.54,0,0,0,6,6.8a2.92,2.92,0,0,0,.9-.2A2.64,2.64,0,0,1,5,7.3a3,3,0,0,1-3-3,3,3,0,0,1,3-3A3.16,3.16,0,0,1,6.9,2ZM8,3.3l.4-.9v1l.8-.6-.5.8,1-.2L8.9,4l1,.2-1,.2.8.6-1-.2.4.9-.7-.6v1L8,5.2l-.4.9v-1l-.8.6.4-.9L6.2,5,7,4.4,6,4.2,7,4l-.7-.6,1,.2-.5-.9.8.6v-1Z" fill-rule="evenodd" fill="url(#linear-gradient-4)"/>
    </g>
  </g>
</svg>
